<?xml version="1.0" standalone="no"?>
<!DOCTYPE svg PUBLIC "-//W3C//DTD SVG 20010904//EN"
 "http://www.w3.org/TR/2001/REC-SVG-20010904/DTD/svg10.dtd">
<svg version="1.0" xmlns="http://www.w3.org/2000/svg"
 width="398.000000pt" height="398.000000pt" viewBox="0 0 398.000000 398.000000"
 preserveAspectRatio="xMidYMid meet">
<metadata>
Created by potrace 1.11, written by Peter Selinger 2001-2013
</metadata>
<g transform="translate(0.000000,398.000000) scale(0.100000,-0.100000)"
fill="#000000" stroke="none">
<path d="M790 2675 c0 -25 5 -46 10 -46 6 -1 15 -3 20 -4 6 -1 15 -3 20 -4 6
-1 10 -62 10 -161 l0 -160 60 0 60 0 0 43 c1 23 2 95 3 161 l2 119 32 2 32 3
0 -97 c-1 -175 0 -188 19 -210 10 -13 29 -22 47 -22 17 0 65 0 108 0 l77 0 0
176 0 175 -60 0 -60 0 0 -142 c0 -78 -3 -138 -7 -134 -4 4 -7 66 -8 139 l0
132 -61 0 -61 0 1 38 2 37 -123 0 -123 0 0 -45z"/>
<path d="M1493 2673 c3 -37 2 -43 -7 -31 -7 10 -17 13 -25 9 -7 -5 -44 -6 -82
-3 l-69 5 0 -177 0 -176 58 0 59 0 0 93 c0 111 3 123 37 129 l25 5 3 -111 3
-111 54 -3 c30 -2 57 1 60 7 3 5 6 64 5 130 -1 67 3 121 8 121 5 0 8 -6 6 -12
-5 -30 14 -65 49 -88 l37 -25 -42 -3 c-39 -3 -42 -5 -42 -32 0 -16 4 -40 10
-55 22 -57 157 -68 204 -16 9 10 18 40 20 67 3 45 0 52 -31 82 -19 17 -41 32
-49 32 -8 0 -14 4 -14 9 0 5 15 9 33 9 55 -1 57 0 54 35 -4 47 -19 67 -62 81
-70 24 -156 -4 -163 -53 -7 -43 -20 -19 -20 37 0 100 5 92 -63 92 l-61 0 5
-47z m257 -120 c0 -22 -2 -25 -10 -13 -13 20 -13 40 0 40 6 0 10 -12 10 -27z
m2 -177 c-7 -13 -21 16 -14 32 4 13 7 12 12 -4 4 -10 5 -23 2 -28z"/>
<path d="M2567 2662 c-18 -4 -18 -6 -19 -465 0 -50 -3 -57 -17 -52 -71 29
-158 6 -185 -49 l-16 -31 0 48 c0 43 -2 47 -24 47 -13 0 -35 -9 -50 -21 -21
-17 -26 -18 -26 -5 0 9 -3 16 -7 17 -14 1 -127 1 -156 0 l-27 -1 2 -287 3
-288 84 -3 c50 -2 88 1 95 8 6 6 11 73 11 171 1 146 3 163 20 175 10 8 31 14
47 14 31 0 28 21 30 -182 1 -116 22 -157 89 -175 20 -6 48 -6 69 0 19 4 44 8
55 8 92 -3 186 -3 190 0 7 8 9 1058 2 1066 -7 7 -138 11 -170 5z m-22 -789
c-3 -183 -3 -182 -13 -166 -4 6 -6 80 -5 165 2 176 1 158 12 158 5 0 7 -71 6
-157z"/>
<path d="M2036 2652 c-3 -3 -41 -6 -83 -6 l-77 -1 -1 -173 0 -172 58 0 57 0 0
135 c0 88 4 135 11 135 6 0 10 -38 9 -107 -3 -180 -8 -163 55 -163 45 0 55 3
56 18 1 9 1 70 1 135 0 64 4 120 9 123 5 3 9 -56 9 -135 l0 -141 58 0 58 0 -1
155 c-1 133 -4 157 -19 174 -10 11 -28 21 -40 23 -27 5 -76 -11 -76 -25 0 -5
-8 -3 -17 5 -20 17 -59 29 -67 20z"/>
<path d="M2365 2650 c-52 -11 -74 -29 -85 -68 -13 -47 -13 -192 0 -226 30 -81
192 -82 225 -2 17 41 19 204 3 235 -27 50 -83 74 -143 61z m37 -223 c-2 -32
-6 -56 -9 -53 -6 5 -7 79 -2 161 l2 50 6 -50 c3 -27 4 -76 3 -108z"/>
<path d="M442 2438 c-35 -4 -98 -19 -140 -33 -85 -28 -222 -100 -222 -116 0
-32 103 -183 171 -250 31 -31 83 -71 115 -89 33 -18 60 -34 61 -35 1 0 -9 -29
-23 -63 -14 -35 -32 -97 -40 -140 -18 -95 -16 -98 99 -107 125 -10 222 8 307
57 33 19 35 19 45 2 22 -39 101 -138 117 -148 36 -22 146 117 172 217 16 61
10 112 -22 173 l-20 40 35 28 c19 16 43 46 52 67 17 38 17 37 18 -140 1 -200
13 -248 71 -289 64 -46 183 -52 260 -13 71 36 89 70 98 181 8 95 8 96 -96 97
-55 1 -92 -3 -97 -10 -3 -6 -7 -42 -7 -80 -1 -47 -5 -72 -13 -75 -15 -4 -15
-9 -14 203 0 236 0 227 14 223 8 -3 13 -31 14 -84 2 -43 5 -84 7 -91 3 -8 31
-12 83 -11 122 1 116 -6 109 104 -3 54 -12 109 -21 128 -30 62 -100 96 -199
96 -105 -1 -179 -52 -204 -140 -7 -25 -10 -28 -11 -13 -2 39 -35 91 -76 118
-34 23 -48 26 -98 23 -38 -3 -67 -11 -87 -26 -23 -17 -31 -19 -40 -10 -65 78
-89 103 -130 133 -82 60 -183 86 -288 73z"/>
<path d="M1711 2138 c-25 -13 -53 -34 -63 -48 -21 -30 -36 -104 -28 -145 5
-29 8 -30 60 -33 l54 -3 -41 -19 c-59 -26 -75 -56 -75 -139 0 -90 14 -132 53
-155 35 -21 113 -24 135 -5 10 8 18 9 22 3 8 -11 161 -12 178 -1 7 4 10 83 9
229 -3 251 -7 269 -71 309 -57 35 -174 38 -233 7z m109 -148 c0 -27 -4 -50
-10 -50 -11 0 -14 83 -3 93 12 12 13 8 13 -43z m4 -197 c-1 -16 -3 -43 -3 -60
-1 -50 -21 -39 -21 11 0 46 7 76 19 76 4 0 6 -12 5 -27z"/>
<path d="M2865 2146 c-16 -7 -39 -22 -50 -32 -46 -44 -50 -61 -52 -240 -2
-155 0 -174 19 -213 30 -61 81 -85 178 -84 85 0 123 15 164 63 37 44 41 66 41
241 0 152 -1 156 -27 196 -37 56 -96 83 -179 83 -35 -1 -77 -7 -94 -14z m111
-272 c0 -163 -2 -184 -17 -184 -5 0 -9 79 -9 176 0 136 3 175 12 172 10 -4 13
-46 14 -164z"/>
<path d="M3580 2144 c-42 -18 -90 -62 -90 -83 0 -35 -14 4 -15 42 l-1 42 -147
3 -148 3 3 -68 3 -68 42 0 c23 -1 45 -3 47 -6 3 -3 -19 -68 -49 -145 -42 -106
-56 -154 -58 -202 -2 -50 0 -65 12 -71 21 -10 273 -7 290 3 7 5 11 17 8 27 -6
23 11 26 20 4 15 -39 134 -63 169 -34 10 8 18 9 22 3 8 -11 167 -13 178 -1 9
8 8 395 -1 448 -8 44 -55 95 -98 107 -54 15 -150 13 -187 -4z m98 -156 c-2
-23 -8 -43 -13 -45 -6 -2 -9 15 -7 42 2 25 8 45 14 45 5 0 8 -19 6 -42z m-204
-28 c-2 -31 1 -40 16 -45 10 -3 22 -5 26 -4 5 1 25 0 44 -1 26 -1 30 -4 15 -8
-39 -13 -85 -47 -92 -67 -4 -11 -8 -33 -9 -50 -1 -16 -2 -37 -3 -45 -1 -12
-14 -16 -55 -17 l-55 -1 21 52 c11 28 30 78 43 111 40 104 44 115 48 115 2 0
3 -18 1 -40z m206 -200 c0 -33 -4 -60 -10 -60 -11 0 -14 78 -4 104 11 28 14
18 14 -44z"/>
<path d="M834 1495 c-51 -21 -56 -36 -59 -160 -2 -115 -2 -115 21 -115 23 0
24 3 24 63 l0 62 58 -1 c31 -1 60 -2 65 -3 4 0 7 -28 7 -61 0 -57 1 -60 25
-60 l24 0 -1 103 c-1 56 -5 112 -9 124 -17 47 -98 72 -155 48z m94 -31 c17
-12 22 -25 22 -58 l0 -43 -62 1 -63 2 -3 33 c-7 68 51 104 106 65z"/>
<path d="M1935 1497 c-14 -11 -16 -17 -6 -35 10 -18 15 -20 31 -12 23 12 26
33 7 49 -10 8 -18 7 -32 -2z"/>
<path d="M2520 1478 c4 -66 3 -68 -37 -66 -55 2 -81 -10 -98 -42 -28 -54 -13
-119 32 -139 32 -14 94 -14 114 2 32 24 39 56 39 166 l0 111 -26 0 c-23 0 -25
-4 -24 -32z m-10 -107 c15 -30 12 -97 -6 -115 -8 -9 -25 -14 -37 -12 -12 3
-25 5 -29 5 -9 1 -22 41 -21 64 2 40 4 46 19 61 21 22 61 20 74 -3z"/>
<path d="M3130 1495 c-17 -20 -5 -45 20 -45 11 0 23 7 26 15 6 15 -11 45 -26
45 -4 0 -13 -7 -20 -15z"/>
<path d="M3444 1495 c-14 -34 13 -56 45 -36 10 7 11 13 2 30 -14 24 -39 28
-47 6z"/>
<path d="M2926 1411 c-7 -11 69 -184 82 -189 6 -2 16 7 21 20 12 31 50 118 62
140 12 24 11 28 -6 28 -13 0 -26 -23 -57 -100 -9 -24 -11 -21 -36 39 -17 40
-33 65 -44 67 -10 1 -20 -1 -22 -5z"/>
<path d="M3130 1319 c0 -72 3 -98 13 -102 26 -10 32 9 32 102 0 91 -1 94 -23
96 -21 2 -22 -1 -22 -96z"/>
<path d="M3460 1411 c-12 -5 -15 -25 -14 -101 1 -107 -11 -140 -51 -140 -16 0
-25 -6 -25 -16 0 -26 70 -11 98 21 22 26 23 31 24 193 1 38 -10 53 -32 43z"/>
<path d="M3780 1406 c-60 -30 -51 -68 23 -104 43 -20 46 -25 36 -43 -9 -17
-18 -20 -55 -17 -44 3 -59 -7 -27 -19 46 -18 106 -2 121 31 14 31 -4 57 -58
81 -26 12 -40 24 -38 34 4 20 50 26 78 11 20 -11 26 -4 12 17 -11 17 -67 23
-92 9z"/>
<path d="M1065 1385 c-45 -36 -50 -102 -11 -141 8 -8 19 -14 25 -14 15 0 14
-6 -5 -35 -19 -30 -12 -55 16 -55 13 0 20 7 20 19 0 37 12 51 50 57 72 12 108
79 76 142 -27 53 -121 68 -171 27z m126 -27 c15 -28 14 -77 -2 -93 -8 -8 -28
-17 -45 -21 -58 -11 -96 61 -59 113 25 36 87 36 106 1z"/>
<path d="M1345 1403 c-106 -27 -78 -183 33 -183 31 0 68 19 42 21 -8 1 -23 1
-32 0 -26 -3 -55 16 -61 39 -5 19 -1 20 67 20 l73 0 -5 29 c-7 51 -65 87 -117
74z m64 -45 c11 -29 -1 -37 -46 -32 -45 4 -47 7 -31 33 18 29 66 28 77 -1z"/>
<path d="M1526 1385 c-14 -13 -26 -28 -27 -32 -7 -52 -5 -129 4 -135 26 -16
37 5 37 68 0 74 20 105 63 97 30 -6 37 -26 37 -105 0 -45 3 -58 15 -58 8 0 18
0 23 0 12 0 10 103 -4 138 -22 55 -102 70 -148 27z"/>
<path d="M1773 1400 c-49 -20 -71 -91 -43 -138 30 -49 75 -59 153 -36 29 9 10
18 -31 15 -73 -5 -116 60 -76 117 18 26 56 29 79 6 12 -13 19 -14 28 -5 27 27
-63 61 -110 41z"/>
<path d="M1930 1316 c0 -69 4 -95 13 -99 26 -10 32 9 32 101 1 89 0 92 -22 92
-22 0 -23 -3 -23 -94z"/>
<path d="M2047 1390 c-45 -36 -44 -122 1 -156 22 -17 84 -18 100 -2 9 9 12 9
12 -4 0 -11 7 -14 23 -11 21 4 23 10 25 70 1 59 -1 67 -27 94 -37 36 -95 40
-134 9z m95 -17 c18 -22 29 -71 16 -79 -4 -3 -6 -9 -3 -13 2 -5 -5 -16 -16
-26 -15 -15 -25 -17 -47 -9 -25 9 -27 14 -27 64 0 48 3 56 25 67 32 16 34 16
52 -4z"/>
<path d="M2650 1398 c-80 -43 -50 -178 41 -178 36 0 60 10 53 21 -3 5 -10 7
-15 3 -19 -12 -66 7 -77 31 -12 25 -11 25 46 26 31 1 66 0 76 -1 16 -1 18 3
12 32 -3 18 -15 41 -24 51 -24 23 -81 31 -112 15z m88 -52 c2 -11 -4 -16 -20
-17 -13 0 -33 -2 -45 -3 -30 -3 -31 27 -1 48 19 13 25 14 43 2 11 -7 21 -21
23 -30z"/>
<path d="M3242 1390 c-29 -27 -37 -79 -19 -123 13 -29 22 -37 53 -43 27 -5 46
-2 65 8 17 10 26 11 25 4 -1 -12 6 -16 29 -16 12 0 15 13 15 61 0 95 -26 128
-101 129 -32 0 -52 -6 -67 -20z m100 -9 c12 -2 24 -56 19 -86 -7 -32 -47 -60
-74 -49 -22 8 -35 53 -26 93 8 38 24 52 54 46 11 -2 23 -4 27 -4z"/>
<path d="M3559 1381 c-38 -39 -39 -87 -3 -130 20 -24 34 -31 62 -31 21 0 44 5
52 10 16 10 8 13 -27 10 -30 -2 -59 15 -66 40 -6 22 1 23 95 20 43 -1 47 0 43
20 -9 47 -18 61 -45 75 -44 23 -78 19 -111 -14z m92 -12 c19 -19 23 -41 6 -40
-4 1 -25 1 -47 1 -33 0 -38 3 -33 18 6 18 32 42 45 42 4 0 17 -9 29 -21z"/>
</g>
</svg>
